<?xml version="1.0" encoding="utf-8"?>
<!-- Generator: Adobe Illustrator 16.0.3, SVG Export Plug-In . SVG Version: 6.00 Build 0)  -->
<!DOCTYPE svg PUBLIC "-//W3C//DTD SVG 1.0//EN" "http://www.w3.org/TR/2001/REC-SVG-20010904/DTD/svg10.dtd">
<svg version="1.0"
	 id="Layer_1" shape-rendering="geometricPrecision" image-rendering="optimizeQuality" text-rendering="geometricPrecision"
	 xmlns="http://www.w3.org/2000/svg" xmlns:xlink="http://www.w3.org/1999/xlink" x="0px" y="0px" width="397.805px"
	 height="84.256px" viewBox="0 0 397.805 84.256" enable-background="new 0 0 397.805 84.256" xml:space="preserve">
<path fill="#F7F7F7" d="M47.575,4.298C34.739,12.435,23.142,16.284,13.19,15.374C11.452,50.53,24.435,71.292,47.442,79.958
	c2.48-0.905,4.845-1.958,7.089-3.163c-0.771-0.297-1.471-0.751-2.056-1.333l-0.01-0.012l-0.01,0.012
	c-0.491-0.49-0.896-1.068-1.19-1.707c-1.237,0.572-2.511,1.102-3.822,1.577C27.25,67.728,15.854,49.503,17.378,18.644
	c8.736,0.799,18.915-2.58,30.183-9.723c9.748,7.574,19.81,9.792,30.065,9.254c0.085,3.268,0.044,6.379-0.115,9.344
	c1.354,0.199,2.676,0.655,3.953,1.403c0.368-4.39,0.496-9.079,0.363-14.083C70.146,15.453,58.683,12.926,47.575,4.298z
	 M56.602,71.919c-0.332,0-0.602-0.268-0.603-0.6c0-0.002,0-0.002,0-0.004c0-0.172,0.025-0.342,0.063-0.51
	c0.968-7.656,4.353-7.793,8.609-8.9c1.269-0.331,3.592-0.508,4.944-1.691c0.745-0.654,1.195-1.984,1.015-2.945
	c-1.026-0.953-1.818-1.984-1.999-3.951l-0.123,0.002c-0.287-0.006-0.563-0.066-0.818-0.215c-0.568-0.326-0.879-0.938-1.03-1.647
	c-0.19-0.894-0.125-1.953-0.033-2.621l0.033-0.132c0.198-0.553,0.444-0.854,0.756-0.98l0.008-0.005
	c-0.143-2.657,0.306-6.865-2.421-7.692c5.387-6.658,11.6-10.282,16.265-4.356c5.197,0.273,7.515,7.934,4.288,12.055H85.42
	c0.31,0.129,0.554,0.431,0.752,0.98l0.036,0.132c0.094,0.668,0.155,1.729-0.036,2.621c-0.151,0.709-0.46,1.322-1.028,1.647
	c-0.254,0.146-0.531,0.209-0.815,0.216l-0.125-0.003c-0.178,1.967-0.971,2.998-1.997,3.951c-0.183,0.961,0.27,2.291,1.013,2.945
	c1.354,1.186,3.674,1.358,4.947,1.691c4.256,1.107,7.64,1.244,8.606,8.9c0.041,0.168,0.064,0.338,0.064,0.51
	c0,0.334-0.271,0.604-0.602,0.604L56.602,71.919L56.602,71.919z M47.202,16.548c-8.682,5.501-16.524,8.104-23.253,7.49
	C22.774,47.81,31.552,61.849,47.11,67.709c0.098-0.037,0.195-0.075,0.293-0.11V16.702L47.202,16.548z"/>
<g>
	<path fill="#F9F9F9" d="M116.09,60.273V25.761h27.84c1.216,0,2.335,0.305,3.36,0.912c1.023,0.608,1.839,1.416,2.448,2.424
		c0.607,1.008,0.912,2.12,0.912,3.336v9.312c0,1.216-0.305,2.335-0.912,3.36c-0.608,1.024-1.424,1.832-2.448,2.424
		c-1.025,0.593-2.145,0.888-3.36,0.888l-21.504,0.049v11.808H116.09z M123.002,42.033h20.64c0.16,0,0.304-0.048,0.432-0.144
		c0.127-0.096,0.192-0.224,0.192-0.384v-8.832c0-0.16-0.064-0.295-0.192-0.408c-0.128-0.112-0.272-0.168-0.432-0.168h-20.64
		c-0.161,0-0.296,0.056-0.408,0.168c-0.112,0.112-0.168,0.248-0.168,0.408v8.832c0,0.161,0.056,0.288,0.168,0.384
		C122.706,41.985,122.842,42.033,123.002,42.033z"/>
	<path fill="#F9F9F9" d="M153.961,60.273v-36.96h6.288v9.12h15.36c1.215,0,2.319,0.304,3.312,0.912c0.992,0.608,1.792,1.409,2.4,2.4
		c0.607,0.992,0.912,2.096,0.912,3.312v21.216h-6.288V39.297c0-0.16-0.057-0.295-0.168-0.408c-0.113-0.112-0.249-0.168-0.408-0.168
		h-14.544c-0.161,0-0.296,0.056-0.408,0.168c-0.112,0.112-0.168,0.248-0.168,0.408v20.976H153.961z"/>
	<path fill="#F9F9F9" d="M186.025,29.649v-6.336h6.288v6.336H186.025z M186.025,60.273v-27.84h6.288v27.84H186.025z"/>
	<path fill="#F9F9F9" d="M201.146,59.361c-0.992-0.607-1.793-1.407-2.4-2.399c-0.608-0.992-0.912-2.096-0.912-3.313v-1.057h6.288
		v0.816c0,0.16,0.056,0.297,0.168,0.408c0.112,0.113,0.248,0.168,0.408,0.168h14.544c0.16,0,0.296-0.055,0.408-0.168
		c0.111-0.111,0.168-0.248,0.168-0.408v-3.312c0-0.16-0.057-0.296-0.168-0.408c-0.112-0.112-0.248-0.168-0.408-0.168h-14.784
		c-1.216,0-2.32-0.304-3.312-0.912c-0.992-0.607-1.793-1.407-2.4-2.399c-0.608-0.992-0.912-2.096-0.912-3.313v-3.84
		c0-1.216,0.304-2.32,0.912-3.312c0.607-0.992,1.408-1.792,2.4-2.4c0.991-0.607,2.096-0.912,3.312-0.912h15.024
		c1.248,0,2.367,0.304,3.359,0.912c0.992,0.608,1.792,1.409,2.4,2.4c0.607,0.992,0.912,2.096,0.912,3.312v1.056h-6.336v-0.816
		c0-0.16-0.057-0.295-0.168-0.408c-0.112-0.112-0.248-0.168-0.408-0.168h-14.544c-0.16,0-0.296,0.056-0.408,0.168
		c-0.112,0.112-0.168,0.248-0.168,0.408v3.312c0,0.161,0.056,0.296,0.168,0.408s0.248,0.168,0.408,0.168h14.784
		c1.248,0,2.367,0.304,3.359,0.912s1.792,1.408,2.4,2.399c0.607,0.992,0.912,2.097,0.912,3.313v3.84c0,1.217-0.305,2.32-0.912,3.313
		c-0.608,0.992-1.408,1.792-2.4,2.399c-0.992,0.608-2.111,0.912-3.359,0.912h-15.024C203.241,60.273,202.137,59.97,201.146,59.361z"
		/>
	<path fill="#F9F9F9" d="M231.049,60.273v-36.96h6.288v9.12h15.36c1.216,0,2.319,0.304,3.312,0.912c0.992,0.608,1.792,1.409,2.4,2.4
		c0.607,0.992,0.912,2.096,0.912,3.312v21.216h-6.288V39.297c0-0.16-0.057-0.295-0.168-0.408c-0.112-0.112-0.248-0.168-0.408-0.168
		h-14.544c-0.16,0-0.296,0.056-0.408,0.168c-0.112,0.112-0.168,0.248-0.168,0.408v20.976H231.049z"/>
	<path fill="#F9F9F9" d="M263.208,60.273v-34.56h6.96l21.216,25.249V25.713h6.384v34.56h-6.96l-21.264-25.296v25.296H263.208z"/>
	<path fill="#F9F9F9" d="M305.88,59.361c-0.992-0.607-1.792-1.407-2.399-2.399c-0.608-0.992-0.912-2.096-0.912-3.313V39.058
		c0-1.216,0.304-2.32,0.912-3.312c0.607-0.992,1.407-1.792,2.399-2.4c0.992-0.607,2.096-0.912,3.313-0.912h15.023
		c1.216,0,2.328,0.304,3.336,0.912c1.009,0.608,1.808,1.409,2.4,2.4c0.592,0.992,0.888,2.096,0.888,3.312v10.464h-21.983v3.888
		c0,0.16,0.055,0.297,0.168,0.408c0.111,0.113,0.247,0.168,0.407,0.168h21.408v6.288h-21.647
		C307.976,60.273,306.872,59.97,305.88,59.361z M308.856,43.857h15.695v-4.56c0-0.16-0.056-0.295-0.168-0.408
		c-0.112-0.112-0.248-0.168-0.407-0.168h-14.545c-0.16,0-0.296,0.056-0.407,0.168c-0.113,0.112-0.168,0.248-0.168,0.408V43.857z"/>
	<path fill="#F9F9F9" d="M339.191,59.361c-0.993-0.607-1.793-1.407-2.4-2.399c-0.608-0.992-0.912-2.096-0.912-3.313V23.89h6.288
		v8.544h10.848v6.288h-10.848v14.688c0,0.16,0.056,0.297,0.168,0.408c0.111,0.113,0.247,0.168,0.408,0.168h10.271v6.288h-10.512
		C341.286,60.273,340.183,59.97,339.191,59.361z"/>
</g>
</svg>
